<svg id="Calque_1" data-name="Calque 1" xmlns="http://www.w3.org/2000/svg" viewBox="0 0 219.84 142.57"><defs><style>.cls-1,.cls-4{fill:none;stroke-miterlimit:10;stroke-width:5px;}.cls-1{stroke:#264395;}.cls-2{fill:#e52629;}.cls-3{fill:#3b54a1;}.cls-4{stroke:#e52629;}</style></defs><line class="cls-1" x1="159.62" y1="139.77" x2="177.39" y2="139.77"/><path class="cls-2" d="M55.75,28.94q-2.1,2.41-6.49,8.64a72.46,72.46,0,0,1-6.17,8c-1.18,1.19-2.16,1.79-2.92,1.79-.58,0-1.15-.46-1.7-1.36a30,30,0,0,1-2.16-5.48,94.62,94.62,0,0,0-3.41-9.66,20.17,20.17,0,0,0-.59,2.44c-.46,2.38-1.06,5.27-1.8,8.69Q28.95,48.44,28,55c0,.27-.26.55-.69.86a2,2,0,0,1-1,.46,1.82,1.82,0,0,1-1.41-.79A2.51,2.51,0,0,1,24.31,54a32.22,32.22,0,0,1,1.23-6.75L27.31,40A94.41,94.41,0,0,0,29.4,30,43,43,0,0,0,29.81,25c0-1.27,1-1.91,2.9-1.91q.61,0,1.29,1.11a6.75,6.75,0,0,1,.89,1.95c.19.56.41,1.18.66,1.87l2.84,8.25A54.6,54.6,0,0,0,40.46,42c.26.44.47.65.64.65q1.08-.24,7.66-9.65,7.32-10.46,8.35-10.45a3.42,3.42,0,0,1,1.87.69c.69.46,1,.86,1,1.2q0,.22-1.23,9.66c-.3,2.33-.57,5.12-.82,8.39s-.39,5.1-.39,5.51a9.59,9.59,0,0,0,.39,2.5,8.45,8.45,0,0,1,.33,2,10.09,10.09,0,0,1-.21,1.73c-.14.76-.45,1.2-.92,1.33a4.78,4.78,0,0,1-1.13.2q-2.23,0-2.23-3.85,0-3.53,1.46-17.22c.07-.73.11-1.19.11-1.37a12.48,12.48,0,0,1,.25-1.47A10.46,10.46,0,0,0,55.78,30,2.85,2.85,0,0,0,55.75,28.94Z"/><path class="cls-2" d="M72.14,31.55q-.09.69-1.13,4.91a27.14,27.14,0,0,0-.65,3.35c-.07.61-.15,1.27-.25,2A49,49,0,0,0,69.43,48a39.82,39.82,0,0,0,.29,4.88,2.26,2.26,0,0,1-.48,2,1.87,1.87,0,0,1-1.29.62,1.32,1.32,0,0,1-1.27-1.07A12.05,12.05,0,0,1,66.33,51,47.85,47.85,0,0,1,67,44.1c.16-1.1.25-1.76.27-2a7.6,7.6,0,0,1,.14-1.23c.07-.42.1-.82.14-1.23a34.18,34.18,0,0,1,.61-4.28c.25-1.32.43-2.49.54-3.5A6.85,6.85,0,0,1,69,30.44a2.05,2.05,0,0,1,.79-.81,2,2,0,0,1,1-.44,1.14,1.14,0,0,1,1.07.71A3.73,3.73,0,0,1,72.14,31.55Z"/><path class="cls-2" d="M87.5,49.81c0-1-1.13-2-3.39-3.25a32.34,32.34,0,0,1-5.8-3.65,4.06,4.06,0,0,1-1.51-3.06q0-4.38,4.23-7.26t6.9-2.88a4,4,0,0,1,2.49.61,2.6,2.6,0,0,1,.77,2.14,1.49,1.49,0,0,1-.56,1.16,1.57,1.57,0,0,1-.88.48,2.69,2.69,0,0,1-.91-.33,2.84,2.84,0,0,0-.89-.3,13.3,13.3,0,0,0-4.3,1.6c-2.16,1.07-3.25,2.28-3.25,3.63a2.92,2.92,0,0,0,1.15,2.23,20.16,20.16,0,0,0,4.11,2.46,15.38,15.38,0,0,1,3.83,2.54,4.23,4.23,0,0,1,1.43,3.17c0,2.25-1.5,4-4.48,5.27a21.7,21.7,0,0,1-8.54,1.91c-2.29,0-3.43-.81-3.43-2.42a1.33,1.33,0,0,1,.77-1.24,3.53,3.53,0,0,1,1.56-.39,6.14,6.14,0,0,1,1.21.22,6.38,6.38,0,0,0,1.14.22,17.27,17.27,0,0,0,5-.82C86,51.31,87.08,50.64,87.5,49.81Z"/><path class="cls-2" d="M101.45,56a6,6,0,0,1-4.79-2.29A8.57,8.57,0,0,1,94.78,48a20.08,20.08,0,0,1,3.67-11.22q3.69-5.51,8.81-5.51a6.62,6.62,0,0,1,5.5,2.71,10.11,10.11,0,0,1,2.11,6.44,15.55,15.55,0,0,1-4.36,10.6Q106.16,56,101.45,56Zm-2.94-8.51a6.64,6.64,0,0,0,.9,3.62,2.72,2.72,0,0,0,2.38,1.41q3.18,0,6.34-3.59a11.78,11.78,0,0,0,3.18-8,7.35,7.35,0,0,0-1.22-4.39,3.84,3.84,0,0,0-3.28-1.7q-3.41,0-5.86,4.34a17,17,0,0,0-2.44,8.31Z"/><path class="cls-2" d="M75.4,19.61a6.14,6.14,0,0,1-2.7-.84,5.48,5.48,0,0,1-2.44-2.88,11.43,11.43,0,0,1-.85-4.47A35.3,35.3,0,0,1,70,6.5c.06-.42.16-1.09.29-2,.24-1.83.4-2.92.5-3.29a1.93,1.93,0,0,1,.44-.88A.94.94,0,0,1,71.92,0c.19,0,.38.2.58.61a2.44,2.44,0,0,1,.29,1,22.83,22.83,0,0,1-.51,2.32,32.41,32.41,0,0,0-.59,3.68,35.65,35.65,0,0,0-.31,3.72c0,2.41.5,4,1.48,4.89a4.22,4.22,0,0,0,2.47,1.29,7.31,7.31,0,0,0,3.29-.68,4.39,4.39,0,0,0,2-2.44,25.34,25.34,0,0,0,1-6.59,30.91,30.91,0,0,1,.71-6.14C82.61.8,83,.4,83.53.4s.76.47.76,1.42a28.29,28.29,0,0,1-.44,4,38.44,38.44,0,0,0-.41,4c-.09,1.2-.19,2.25-.33,3.17a7.56,7.56,0,0,1-.66,2.28A9,9,0,0,1,81.29,17a10.27,10.27,0,0,1-1.47,1.4,5.48,5.48,0,0,1-2.11,1A8.94,8.94,0,0,1,75.4,19.61Z"/><path class="cls-3" d="M10.11,105.3c.78.58,2.47,1.93,5.09,4s4.85,3.87,6.29,4.87A12.64,12.64,0,0,0,24.58,116a18.2,18.2,0,0,0,3.36.44,2.71,2.71,0,0,1,.08.69,3.14,3.14,0,0,1-.71,2.18,2.47,2.47,0,0,1-1.92.79,6.41,6.41,0,0,1-2.94-.94,57.47,57.47,0,0,1-6.26-4.48l-4.83-3.8a20.82,20.82,0,0,0-4.64-3,1.69,1.69,0,0,0-1.29.57,11.79,11.79,0,0,0-.94,3.5,29.82,29.82,0,0,0-.27,3.27c-.2,4-1,6-2.42,6.05a1.64,1.64,0,0,1-1.31-.56A2.09,2.09,0,0,1,0,119.28a8.43,8.43,0,0,1,.28-1.8Q.91,114.75,2,101.64c.26-2.67.6-5.36,1-8.09a32.68,32.68,0,0,1,.87-4.82,2.45,2.45,0,0,1,.78-1.1,1.66,1.66,0,0,1,.93-.35c1.32,0,2,.83,1.93,2.48a73.54,73.54,0,0,0-1.82,11.62c-.08,1.13-.2,2.25-.34,3.36v.17s.08,0,.22,0a14.72,14.72,0,0,0,1.35-1c.76-.58,1.58-1.26,2.46-2a20.62,20.62,0,0,0,2.08-2.1,12.58,12.58,0,0,1,1.29-1.34c1.76-1.63,3.06-2.91,3.9-3.86a19.42,19.42,0,0,0,2.38-3.38q1.56-2.82,2.22-2.82a2.28,2.28,0,0,1,1.55.83,2.37,2.37,0,0,1,.8,1.64q0,2.12-6.44,8c-1,.85-1.55,1.42-1.82,1.69C14.89,101,13.13,102.61,10.11,105.3Z"/><path class="cls-3" d="M38.24,120.52a6,6,0,0,1-4.79-2.28,8.66,8.66,0,0,1-1.89-5.66,20,20,0,0,1,3.68-11.18q3.67-5.5,8.81-5.51a6.62,6.62,0,0,1,5.5,2.71A10.19,10.19,0,0,1,51.66,105a15.65,15.65,0,0,1-4.35,10.6Q42.94,120.53,38.24,120.52Zm-3-8.51a6.69,6.69,0,0,0,.9,3.63,2.73,2.73,0,0,0,2.39,1.41c2.1,0,4.22-1.2,6.33-3.6a11.78,11.78,0,0,0,3.18-8,7.29,7.29,0,0,0-1.21-4.39,3.86,3.86,0,0,0-3.28-1.68c-2.27,0-4.23,1.45-5.86,4.34A17.05,17.05,0,0,0,35.31,112Z"/><path class="cls-3" d="M60.88,110.69a10.9,10.9,0,0,0,.5-1.1A41.18,41.18,0,0,1,64,104.22a37.65,37.65,0,0,1,2.66-3.73,18.44,18.44,0,0,1,2.62-2.68,8.85,8.85,0,0,1,2.18-1.28,5.29,5.29,0,0,1,1.88-.37,4.08,4.08,0,0,1,3,1.16A3.67,3.67,0,0,1,77.54,100a2,2,0,0,1-.42,1.23,1.45,1.45,0,0,1-1.26.55,2.21,2.21,0,0,1-1.63-.81,2.19,2.19,0,0,0-1.59-.81c-1.47,0-3.5,1.84-6.1,5.54a26.79,26.79,0,0,0-4.75,12.21,3.71,3.71,0,0,1-.81,2.26,2.35,2.35,0,0,1-1.67.55c-.69,0-1.19-.53-1.51-1.6a21.92,21.92,0,0,1-.46-5.42c0-.68,0-2.2.1-4.55a62.92,62.92,0,0,1,.51-6.71c0-.28.12-.93.22-2a11.05,11.05,0,0,1,.37-2.36,2.73,2.73,0,0,1,.91-1.23,2.27,2.27,0,0,1,1.49-.57,1.37,1.37,0,0,1,1.18.52A1.81,1.81,0,0,1,62.51,98a10,10,0,0,1-.42,2.42,21.34,21.34,0,0,0-.58,2.39,11.45,11.45,0,0,1-.2,1.53,46.6,46.6,0,0,0-.42,5v1.38Z"/><path class="cls-3" d="M97.06,112c0,1.49-1.28,3.3-3.83,5.41a12.27,12.27,0,0,1-7.89,3.17,6.7,6.7,0,0,1-5.27-2.09,8.52,8.52,0,0,1-1.86-5.83,20.18,20.18,0,0,1,4.1-12Q86.39,95,91.25,95A3.41,3.41,0,0,1,93.85,96a3.67,3.67,0,0,1,1,2.59c0,2.26-1.06,4.42-3.2,6.49a40.59,40.59,0,0,1-8.56,6.09,1.77,1.77,0,0,0-1.1,1.54,4.13,4.13,0,0,0,1,2.93,3.89,3.89,0,0,0,3,1.1q4.56,0,9.3-5.24c.47-.48.82-.72,1.06-.72C96.83,110.81,97.06,111.22,97.06,112Zm-14.75-3.43q9-5.55,9-8.91,0-1.32-1.14-1.32-2,0-4.4,3A17.46,17.46,0,0,0,82.31,108.54Z"/><path class="cls-3" d="M115.77,111.42a26.2,26.2,0,0,1-5.87,6.2,9.39,9.39,0,0,1-5.32,2.07,3.57,3.57,0,0,1-2.82-1.43,5.54,5.54,0,0,1-1.18-3.67q0-5.79,5-12.46t9.9-6.68a2.85,2.85,0,0,1,2.65,2.11.92.92,0,0,0,.87.71c1.13,0,1.69.45,1.69,1.36a11.76,11.76,0,0,1-.21,1.87,62.7,62.7,0,0,0-1.15,9.15c0,3.55.65,5.67,2,6.38a1.5,1.5,0,0,1,.93,1.3,1.88,1.88,0,0,1-.91,1.37,3,3,0,0,1-1.76.69c-1.09,0-2-.77-2.7-2.33A16.71,16.71,0,0,1,115.77,111.42ZM114.48,99c-1.86,0-4,1.81-6.5,5.44s-3.71,6.63-3.71,9c0,1.68.53,2.53,1.61,2.53,1.55,0,3.71-1.63,6.46-4.88s4.13-6.25,4.13-9c0-2-.66-3.09-2-3.09Z"/><rect class="cls-4" x="134.26" y="30.84" width="20.26" height="21.02"/><line class="cls-4" x1="165.37" y1="16.57" x2="165.37" y2="66.87"/><line class="cls-4" x1="195.15" y1="19.81" x2="180.56" y2="40.36"/><line class="cls-4" x1="198.5" y1="39.84" x2="190.09" y2="29.78"/><line class="cls-4" x1="188.51" y1="55.65" x2="188.51" y2="42.33"/><line class="cls-4" x1="201.22" y1="56.08" x2="176.98" y2="56.08"/><line class="cls-1" x1="171.47" y1="110.13" x2="186.52" y2="110.13"/><line class="cls-1" x1="170.99" y1="129.94" x2="170.99" y2="92.19"/><line class="cls-1" x1="132.08" y1="94.65" x2="160.3" y2="94.65"/><line class="cls-1" x1="150.22" y1="72.88" x2="150.22" y2="93.9"/><ellipse class="cls-1" cx="149.42" cy="110.95" rx="8.17" ry="8.48"/><line class="cls-1" x1="161.55" y1="128.39" x2="161.55" y2="142.57"/><line class="cls-1" x1="210.43" y1="101.41" x2="210.93" y2="87.6"/><line class="cls-1" x1="211.95" y1="90.15" x2="197.91" y2="89.65"/><line class="cls-1" x1="206.21" y1="109.34" x2="206.21" y2="122.66"/><line class="cls-1" x1="193.5" y1="108.91" x2="217.73" y2="108.91"/><line class="cls-1" x1="193.44" y1="124.3" x2="218.97" y2="124.3"/><line class="cls-1" x1="208.91" y1="137.72" x2="217.7" y2="123.03"/></svg>